<svg width="82" height="13" viewBox="0 0 82 13" fill="none" xmlns="http://www.w3.org/2000/svg">
<g clip-path="url(#clip0_253_1782)">
<path d="M18.7008 12.1676V11.3582C18.7008 11.0479 18.5107 10.8456 18.185 10.8456C18.0222 10.8456 17.8458 10.8996 17.7236 11.075C17.6287 10.9266 17.493 10.8456 17.2895 10.8456C17.1537 10.8456 17.0181 10.8861 16.9095 11.0345V10.8726H16.6245V12.1676H16.9095V11.4526C16.9095 11.2234 17.0316 11.1154 17.2216 11.1154C17.4115 11.1154 17.5066 11.2368 17.5066 11.4526V12.1676H17.7916V11.4526C17.7916 11.2234 17.9272 11.1154 18.1036 11.1154C18.2936 11.1154 18.3886 11.2368 18.3886 11.4526V12.1676H18.7008ZM22.9209 10.8726H22.4596V10.4814H22.1746V10.8726H21.9168V11.1289H22.1746V11.7224C22.1746 12.0192 22.2967 12.1945 22.6224 12.1945C22.7446 12.1945 22.8802 12.1541 22.9753 12.1002L22.8938 11.8573C22.8124 11.9113 22.7174 11.9248 22.6496 11.9248C22.5139 11.9248 22.4596 11.8439 22.4596 11.7089V11.1289H22.9209V10.8726ZM25.3364 10.8456C25.1736 10.8456 25.0651 10.9266 24.9972 11.0345V10.8726H24.7122V12.1676H24.9972V11.4392C24.9972 11.2234 25.0921 11.1019 25.2685 11.1019C25.3228 11.1019 25.3907 11.1155 25.445 11.1289L25.5264 10.8592C25.4721 10.8456 25.3907 10.8456 25.3364 10.8456M21.6861 10.9806C21.5504 10.8861 21.3604 10.8457 21.1569 10.8457C20.8312 10.8457 20.6141 11.0076 20.6141 11.2639C20.6141 11.4797 20.7769 11.6011 21.0619 11.6416L21.1976 11.6551C21.3469 11.682 21.4283 11.7225 21.4283 11.79C21.4283 11.8844 21.3197 11.9518 21.1297 11.9518C20.9397 11.9518 20.7905 11.8844 20.6955 11.8169L20.5598 12.0328C20.7091 12.1407 20.9126 12.1946 21.1161 12.1946C21.4961 12.1946 21.7133 12.0193 21.7133 11.7765C21.7133 11.5471 21.5368 11.4257 21.2654 11.3853L21.1297 11.3718C21.0076 11.3582 20.9126 11.3313 20.9126 11.2504C20.9126 11.156 21.0076 11.102 21.1569 11.102C21.3197 11.102 21.4826 11.1694 21.564 11.2099L21.6861 10.9806ZM29.2582 10.8457C29.0953 10.8457 28.9867 10.9266 28.9189 11.0345V10.8727H28.6339V12.1676H28.9189V11.4392C28.9189 11.2234 29.0139 11.102 29.1902 11.102C29.2446 11.102 29.3124 11.1155 29.3667 11.129L29.4481 10.8592C29.3938 10.8457 29.3124 10.8457 29.2582 10.8457ZM25.6214 11.5202C25.6214 11.9113 25.8928 12.1946 26.3135 12.1946C26.5034 12.1946 26.6391 12.1542 26.7748 12.0463L26.6391 11.8169C26.5306 11.8979 26.422 11.9383 26.2999 11.9383C26.0692 11.9383 25.9064 11.7765 25.9064 11.5202C25.9064 11.2774 26.0692 11.1155 26.2999 11.102C26.422 11.102 26.5306 11.1424 26.6391 11.2234L26.7748 10.9941C26.6391 10.8861 26.5034 10.8457 26.3135 10.8457C25.8928 10.8457 25.6214 11.129 25.6214 11.5202ZM28.254 11.5202V10.8727H27.969V11.0345C27.874 10.9132 27.7383 10.8457 27.5619 10.8457C27.1955 10.8457 26.9105 11.129 26.9105 11.5202C26.9105 11.9113 27.1955 12.1946 27.5619 12.1946C27.7518 12.1946 27.8876 12.1272 27.969 12.0058V12.1676H28.254V11.5202ZM27.209 11.5202C27.209 11.2908 27.3583 11.102 27.6026 11.102C27.8333 11.102 27.9961 11.2774 27.9961 11.5202C27.9961 11.7495 27.8333 11.9383 27.6026 11.9383C27.3583 11.9248 27.209 11.7495 27.209 11.5202ZM23.803 10.8457C23.4231 10.8457 23.1516 11.1155 23.1516 11.5202C23.1516 11.9249 23.423 12.1946 23.8166 12.1946C24.0065 12.1946 24.1965 12.1407 24.3458 12.0193L24.2101 11.8169C24.1015 11.8979 23.9659 11.9518 23.8302 11.9518C23.6538 11.9518 23.4773 11.8709 23.4366 11.6415H24.4001V11.5337C24.4137 11.1155 24.1695 10.8457 23.803 10.8457ZM23.803 11.0885C23.9793 11.0885 24.1015 11.1964 24.1286 11.3988H23.4501C23.4773 11.2234 23.5994 11.0885 23.803 11.0885ZM30.8729 11.5202V10.3601H30.5879V11.0345C30.4929 10.9132 30.3572 10.8457 30.1808 10.8457C29.8144 10.8457 29.5295 11.129 29.5295 11.5202C29.5295 11.9113 29.8144 12.1946 30.1808 12.1946C30.3708 12.1946 30.5065 12.1272 30.5879 12.0058V12.1676H30.8729V11.5202ZM29.828 11.5202C29.828 11.2908 29.9772 11.102 30.2215 11.102C30.4522 11.102 30.6151 11.2774 30.6151 11.5202C30.6151 11.7495 30.4522 11.9383 30.2215 11.9383C29.9772 11.9248 29.828 11.7495 29.828 11.5202ZM20.3019 11.5202V10.8727H20.0169V11.0345C19.9219 10.9132 19.7862 10.8457 19.6098 10.8457C19.2434 10.8457 18.9585 11.129 18.9585 11.5202C18.9585 11.9113 19.2434 12.1946 19.6098 12.1946C19.7998 12.1946 19.9355 12.1272 20.0169 12.0058V12.1676H20.3019V11.5202ZM19.2434 11.5202C19.2434 11.2908 19.3927 11.102 19.6369 11.102C19.8676 11.102 20.0305 11.2774 20.0305 11.5202C20.0305 11.7495 19.8676 11.9383 19.6369 11.9383C19.3927 11.9248 19.2434 11.7495 19.2434 11.5202Z" fill="black"/>
<path d="M21.5908 1.03885H25.8653V8.67382H21.5908V1.03885Z" fill="#FF5F00"/>
<path d="M21.8624 4.85635C21.8624 3.3051 22.5951 1.92916 23.7214 1.03884C22.8937 0.391361 21.8488 0.000183105 20.709 0.000183105C18.0085 0.000183105 15.8237 2.17194 15.8237 4.85635C15.8237 7.54077 18.0085 9.71253 20.7089 9.71253C21.8488 9.71253 22.8936 9.32135 23.7214 8.67381C22.5951 7.79701 21.8624 6.40761 21.8624 4.85635Z" fill="#EB001B"/>
<path d="M31.6325 4.85635C31.6325 7.54071 29.4478 9.71253 26.7474 9.71253C25.6075 9.71253 24.5626 9.32135 23.7349 8.67381C24.8747 7.78355 25.594 6.40761 25.594 4.85635C25.594 3.3051 24.8611 1.92916 23.7349 1.03884C24.5626 0.391361 25.6075 0.000183105 26.7474 0.000183105C29.4478 0.000183105 31.6325 2.18546 31.6325 4.85635Z" fill="#F79E1B"/>
</g>
<g clip-path="url(#clip1_253_1782)">
<path d="M49.3075 4.67741C49.2944 5.77522 50.2303 6.38781 50.9353 6.75206C51.6596 7.12575 51.9029 7.36541 51.9001 7.69963C51.8947 8.21107 51.3223 8.43681 50.7867 8.44558C49.8522 8.46093 49.3089 8.17809 48.8769 7.96417L48.5403 9.63424C48.9737 9.84597 49.7761 10.0306 50.6083 10.0387C52.5616 10.0387 53.8396 9.01642 53.8465 7.43138C53.8541 5.41974 51.2221 5.30839 51.2401 4.40925C51.2463 4.1366 51.4917 3.84566 52.0294 3.77168C52.2955 3.73432 53.0302 3.70572 53.8631 4.11239L54.19 2.49656C53.7421 2.32363 53.1664 2.15805 52.4496 2.15805C50.6111 2.15805 49.3179 3.19427 49.3075 4.67741ZM57.3314 2.29723C56.9747 2.29723 56.6742 2.51782 56.54 2.85633L53.7497 9.92004H55.7017L56.0901 8.78191H58.4753L58.7006 9.92004H60.421L58.9197 2.29723H57.3314ZM57.6045 4.35643L58.1678 7.21889H56.6251L57.6045 4.35643ZM46.9409 2.29732L45.4023 9.91995H47.2624L48.8002 2.29713L46.9409 2.29732ZM44.1893 2.29732L42.2533 7.48562L41.4702 3.07406C41.3783 2.58159 41.0154 2.29723 40.6124 2.29723H37.4476L37.4033 2.51858C38.053 2.66806 38.7912 2.90914 39.2384 3.16711C39.5121 3.32469 39.5902 3.46244 39.6801 3.83689L41.1634 9.92004H43.129L46.1425 2.29723L44.1893 2.29732Z" fill="url(#paint0_linear_253_1782)"/>
</g>
<g clip-path="url(#clip2_253_1782)">
<path d="M80.945 11.5089H67.2303C66.9505 11.5089 66.6821 11.4028 66.4843 11.2139C66.2864 11.0251 66.1753 10.7689 66.1753 10.5018V2.44565C66.1753 2.17857 66.2864 1.92243 66.4843 1.73358C66.6821 1.54473 66.9505 1.43863 67.2303 1.43863H80.945C81.2248 1.43863 81.4931 1.54473 81.691 1.73358C81.8888 1.92243 82 2.17857 82 2.44565V10.5018C82 10.7689 81.8888 11.0251 81.691 11.2139C81.4931 11.4028 81.2248 11.5089 80.945 11.5089ZM72.3434 5.77093C72.3314 5.77108 72.3195 5.7738 72.3087 5.77888C72.2979 5.78396 72.2884 5.79128 72.281 5.8003C72.2637 5.81713 72.2537 5.83965 72.2533 5.86324C72.2533 5.87205 72.2964 5.99751 72.3887 6.25472L72.5882 6.8111L72.681 7.07041C72.785 7.36133 72.8394 7.51602 72.8441 7.53448C72.6394 7.77634 72.4544 8.03276 72.2906 8.3015L72.2739 8.33087L72.2731 8.34136C72.2731 8.38332 72.3087 8.41772 72.3531 8.41772L72.3649 8.41688H72.3645H72.8999C72.9249 8.41674 72.9494 8.41054 72.9711 8.39887C72.9929 8.3872 73.0112 8.37044 73.0243 8.35017L73.0247 8.34975L74.7971 5.90814C74.8064 5.89643 74.8115 5.88214 74.8116 5.86744L74.8112 5.86114V5.86156C74.8106 5.838 74.8007 5.81552 74.7835 5.79862C74.7761 5.78963 74.7667 5.78233 74.756 5.77725C74.7452 5.77217 74.7335 5.76944 74.7215 5.76925H74.1856C74.1606 5.7694 74.1361 5.7756 74.1142 5.78727C74.0924 5.79893 74.074 5.81569 74.0608 5.83597L74.0604 5.83639L73.3219 6.8711L73.0164 5.87583C73.0085 5.8455 72.9903 5.81854 72.9646 5.79923C72.9389 5.77992 72.9071 5.76937 72.8744 5.76925L72.863 5.76967H72.8634L72.3434 5.77093ZM78.4878 5.72435H78.4763C78.1431 5.72435 77.8438 5.8624 77.6372 6.08143L77.6363 6.08227C77.4103 6.30534 77.2842 6.60361 77.2846 6.9139V6.92523V6.92481C77.2838 6.93698 77.2838 6.95166 77.2838 6.96593C77.2838 7.19125 77.3756 7.39643 77.5251 7.54875L77.5247 7.54833C77.6097 7.62737 77.7109 7.68881 77.8219 7.72881C77.9329 7.76881 78.0514 7.7865 78.1699 7.78078H78.1677C78.3159 7.7791 78.4565 7.75015 78.5849 7.69812L78.5779 7.70064C78.7075 7.65406 78.8174 7.58147 78.904 7.48916L78.9049 7.48832C78.9005 7.51224 78.8957 7.53238 78.89 7.55168L78.8908 7.54749C78.883 7.57318 78.8783 7.59965 78.8768 7.62637V7.62721C78.8768 7.6977 78.9071 7.73337 78.9673 7.73337H79.4469C79.4656 7.73497 79.4845 7.73298 79.5024 7.7275C79.5203 7.72202 79.5369 7.71317 79.5512 7.70148C79.5654 7.68978 79.5771 7.67547 79.5854 7.6594C79.5938 7.64333 79.5987 7.62582 79.5999 7.60791V7.60749L79.8847 5.87583C79.8874 5.86276 79.8869 5.84929 79.8834 5.83642C79.8798 5.82355 79.8732 5.81163 79.8641 5.80156C79.8562 5.79116 79.8458 5.7827 79.8338 5.77687C79.8218 5.77103 79.8085 5.76799 79.795 5.76799H79.2662C79.2016 5.76799 79.1607 5.84142 79.1476 5.98702C79.0702 5.89225 78.9684 5.81822 78.8522 5.77212C78.7359 5.72601 78.6092 5.70941 78.4842 5.72394L78.4878 5.72352V5.72435ZM70.5917 5.72435H70.5794C70.2466 5.72435 69.9473 5.8624 69.7416 6.08143L69.7407 6.08227C69.5147 6.30534 69.3886 6.60361 69.389 6.9139V6.92523V6.92481C69.3832 7.03886 69.4015 7.15286 69.4429 7.25999C69.4843 7.36713 69.5479 7.46519 69.6299 7.54833L69.6295 7.54791C69.7851 7.69225 69.9978 7.7812 70.2326 7.7812L70.2748 7.78036H70.2726C70.4185 7.77826 70.557 7.74931 70.6831 7.6977L70.6761 7.70022C70.8075 7.65239 70.9192 7.58022 71.0093 7.48832L71.0097 7.48791C70.9935 7.52903 70.9834 7.57686 70.982 7.62637V7.62721C70.982 7.6977 71.0128 7.73337 71.0726 7.73337H71.5517C71.5704 7.73497 71.5893 7.73298 71.6072 7.7275C71.6251 7.72202 71.6417 7.71317 71.656 7.70148C71.6702 7.68978 71.6819 7.67547 71.6903 7.6594C71.6986 7.64333 71.7035 7.62582 71.7047 7.60791V7.60749L71.99 5.87583C71.9924 5.86286 71.9917 5.84955 71.9881 5.83685C71.9844 5.82415 71.9779 5.81238 71.9689 5.8024C71.961 5.792 71.9506 5.78354 71.9386 5.7777C71.9266 5.77187 71.9133 5.76883 71.8999 5.76883H71.3711C71.3064 5.76883 71.2656 5.84226 71.2528 5.98786C71.1746 5.89385 71.0727 5.82035 70.9566 5.77425C70.8405 5.72816 70.714 5.71099 70.5891 5.72435L70.5926 5.72394L70.5917 5.72435ZM80.5107 4.79538L80.5036 4.79496C80.4827 4.79488 80.4624 4.80236 80.4469 4.81588C80.4315 4.82941 80.4219 4.84801 80.4201 4.86796L79.9682 7.62847C79.9645 7.64175 79.9645 7.65573 79.9681 7.66904C79.9717 7.68234 79.9789 7.69453 79.9889 7.70441C79.9972 7.71381 80.0076 7.72135 80.0193 7.7265C80.031 7.73165 80.0437 7.73428 80.0566 7.73421H80.5182L80.5322 7.73505C80.5672 7.73505 80.6007 7.72178 80.6255 7.69818C80.6502 7.67457 80.6641 7.64255 80.6641 7.60917V7.60833L81.1151 4.89566L81.1155 4.88643C81.1155 4.8625 81.1073 4.83923 81.0922 4.82013V4.82055C81.0843 4.81251 81.0748 4.8061 81.0642 4.8017C81.0536 4.7973 81.0422 4.795 81.0307 4.79496L81.0241 4.79538H80.5107ZM75.3808 4.79538C75.362 4.79301 75.3428 4.79447 75.3246 4.79966C75.3063 4.80485 75.2894 4.81365 75.275 4.82549C75.2606 4.83733 75.2489 4.85194 75.2408 4.86837C75.2327 4.88479 75.2283 4.90267 75.2279 4.92083L74.7764 7.62805C74.7741 7.64092 74.7748 7.65412 74.7783 7.66673C74.7819 7.67934 74.7883 7.69106 74.7971 7.70106C74.8049 7.7115 74.8151 7.72 74.8271 7.72584C74.839 7.73169 74.8523 7.7347 74.8657 7.73463H75.4393C75.4651 7.73461 75.49 7.72606 75.5099 7.71045C75.5297 7.69484 75.5433 7.67313 75.5483 7.64903V7.64819L75.6736 6.87866C75.6773 6.84496 75.6949 6.81404 75.7224 6.79264C75.7524 6.76951 75.7888 6.75457 75.827 6.74942H75.8283C75.8639 6.74313 75.9048 6.73977 75.9466 6.73935C75.9835 6.73935 76.0279 6.74145 76.0789 6.74606C76.1346 6.75218 76.1907 6.75499 76.2468 6.75446C76.5689 6.75496 76.8792 6.63908 77.1154 6.43011L77.1145 6.43095C77.2323 6.31172 77.3233 6.17072 77.3818 6.01665C77.4403 5.86258 77.4651 5.6987 77.4548 5.53512V5.53847C77.4642 5.43029 77.4448 5.32159 77.3983 5.22253C77.3518 5.12347 77.2797 5.03728 77.1888 4.97202L77.1871 4.97077C76.9773 4.84415 76.7316 4.78273 76.4837 4.79496H76.4864L75.3808 4.79538ZM67.4764 4.79538C67.458 4.79349 67.4394 4.79532 67.4218 4.80075C67.4042 4.80617 67.388 4.81507 67.3743 4.82686C67.3605 4.83865 67.3495 4.85307 67.342 4.86919C67.3344 4.88531 67.3305 4.90276 67.3305 4.92041V4.92125L66.8786 7.62847C66.8763 7.64134 66.8769 7.65455 66.8805 7.66716C66.884 7.67978 66.8904 7.69149 66.8993 7.70148C66.907 7.71192 66.9173 7.72042 66.9293 7.72626C66.9412 7.73211 66.9544 7.73512 66.9678 7.73505H67.4971C67.516 7.73741 67.5351 7.73595 67.5534 7.73076C67.5716 7.72557 67.5885 7.71677 67.6029 7.70493C67.6174 7.69309 67.629 7.67848 67.6371 7.66206C67.6453 7.64563 67.6497 7.62775 67.6501 7.60959L67.7753 6.87991C67.7791 6.84634 67.7965 6.81549 67.8237 6.7939C67.8537 6.77076 67.8901 6.75583 67.9283 6.75068H67.9296C67.9685 6.74413 68.0079 6.74076 68.0474 6.74061H68.0479C68.0848 6.74061 68.1288 6.74271 68.1797 6.74732C68.2353 6.75342 68.2913 6.75623 68.3472 6.75571C68.6826 6.75571 68.9877 6.63277 69.2163 6.43137L69.2154 6.43221C69.3331 6.31295 69.4241 6.17195 69.4826 6.01788C69.5411 5.86382 69.5659 5.69995 69.5556 5.53638V5.53973C69.5651 5.43155 69.5456 5.32285 69.4991 5.22379C69.4526 5.12472 69.3806 5.03854 69.2897 4.97328L69.2879 4.97202C69.0791 4.84588 68.8345 4.78433 68.5877 4.79579H68.5903L67.4764 4.79538ZM78.4587 7.2437L78.4376 7.24412C78.3253 7.24422 78.2166 7.20631 78.1308 7.13713L78.1317 7.13754C78.092 7.10266 78.0604 7.0603 78.0387 7.01313C78.0171 6.96597 78.0059 6.91504 78.006 6.86355L78.0064 6.84467V6.83334C78.0064 6.67641 78.0728 6.53417 78.1805 6.43095C78.2864 6.32731 78.4341 6.26311 78.5977 6.26311H78.6122H78.6113L78.6262 6.26269C78.7445 6.26269 78.8522 6.30423 78.9348 6.37263L78.9344 6.37221C78.9752 6.40828 79.0077 6.45203 79.03 6.5007C79.0522 6.54937 79.0637 6.60191 79.0636 6.65501L79.0632 6.67515V6.67431V6.68438C79.0632 6.83921 78.9959 6.97936 78.8873 7.0788C78.8325 7.13096 78.7674 7.17229 78.6958 7.20044C78.6243 7.22859 78.5476 7.243 78.4702 7.24286H78.4592L78.4587 7.2437ZM70.5556 7.2437L70.5337 7.24412C70.4185 7.24412 70.3126 7.20384 70.2317 7.13713L70.2321 7.13754C70.1935 7.10226 70.1627 7.05987 70.1417 7.01292C70.1207 6.96597 70.1099 6.91544 70.1099 6.86439L70.1104 6.84467V6.83334C70.1104 6.67641 70.1767 6.53417 70.2844 6.43095C70.3904 6.32731 70.5376 6.26311 70.7011 6.26311H70.7165H70.7157L70.7306 6.26269C70.8488 6.26269 70.9565 6.30423 71.0392 6.37263L71.0387 6.37221C71.0794 6.40826 71.1119 6.45195 71.1341 6.50055C71.1562 6.54914 71.1676 6.60159 71.1675 6.65459L71.1671 6.67515V6.67431V6.689C71.1671 6.84383 71.0998 6.98313 70.9913 7.08258C70.8786 7.18608 70.7283 7.24383 70.5719 7.2437H70.5556ZM75.7897 6.16954L75.9079 5.46001C75.9088 5.44956 75.9119 5.4394 75.917 5.43009C75.9221 5.42079 75.929 5.41253 75.9374 5.40579C75.9458 5.39904 75.9555 5.39395 75.966 5.3908C75.9765 5.38765 75.9875 5.3865 75.9985 5.38742H76.1233L76.1501 5.387C76.2261 5.387 76.3013 5.39204 76.3747 5.40169L76.3664 5.40085C76.4345 5.4126 76.4939 5.44197 76.5404 5.48393C76.567 5.50788 76.5881 5.53676 76.6026 5.5688C76.617 5.60084 76.6244 5.63535 76.6244 5.67023L76.624 5.68617V5.68533C76.6332 5.75543 76.6241 5.82662 76.5976 5.89258C76.5711 5.95853 76.5279 6.01721 76.4719 6.06339L76.4714 6.06381C76.3314 6.14011 76.1708 6.17515 76.0099 6.16451H76.0125L75.7905 6.17122L75.7897 6.16954ZM67.8866 6.16954L68.0048 5.46001C68.0057 5.44954 68.0087 5.43935 68.0138 5.43002C68.0188 5.42069 68.0258 5.4124 68.0342 5.40565C68.0426 5.3989 68.0524 5.39381 68.0629 5.39068C68.0734 5.38755 68.0844 5.38644 68.0954 5.38742H68.2268C68.3675 5.37758 68.5084 5.40456 68.6343 5.46547L68.6299 5.46337C68.713 5.51414 68.7411 5.62197 68.7134 5.78478C68.7113 5.84556 68.6939 5.90496 68.6627 5.95798C68.6314 6.01099 68.5873 6.05607 68.534 6.0894L68.5327 6.09024C68.3244 6.16347 68.1013 6.19045 67.8804 6.16912L67.8866 6.16954Z" fill="black"/>
</g>
<g clip-path="url(#clip3_253_1782)">
<path d="M1.54736 0.907227H10.1727V4.11891H1.54736V0.907227Z" fill="white"/>
<path d="M1.54736 4.20883H10.1727V11.5089H1.54736V4.20883Z" fill="#006CA2"/>
<path d="M2.66057 2.77203C2.57785 2.77203 2.50682 2.77653 2.50682 2.89431C2.50682 2.95186 2.50412 3.0085 2.50772 3.06605C2.50862 3.09752 2.51311 3.13258 2.5284 3.15956C2.54458 3.18743 2.56346 3.18743 2.58954 3.19103C2.6237 3.19642 2.65248 3.19732 2.68754 3.19732C2.76757 3.19732 2.84939 3.14607 2.87816 3.06515C2.89254 3.02199 2.89344 2.97164 2.87186 2.91499C2.8341 2.82328 2.74149 2.77203 2.66057 2.77203ZM4.81758 2.62817L4.81488 2.61648C4.7987 2.54995 4.78341 2.48341 4.76813 2.41688C4.75644 2.3944 4.74835 2.36203 4.71867 2.37012C4.69799 2.37552 4.6899 2.40159 4.68451 2.41598L4.67821 2.42317C4.66383 2.51488 4.64764 2.60659 4.63056 2.6983L4.62876 2.70819L4.62337 2.73067C4.62067 2.75765 4.61707 2.78732 4.62606 2.81339L4.64764 2.84037L4.68271 2.85205L4.70699 2.86105H4.7906C4.89221 2.83137 4.83017 2.70729 4.82028 2.63626L4.81758 2.62817ZM2.59134 2.24694C2.67136 2.26313 2.77566 2.23525 2.82241 2.14354C2.85658 2.07611 2.85029 1.99608 2.80982 1.93584L2.79544 1.91606C2.76307 1.8792 2.71632 1.86931 2.67406 1.86751C2.6318 1.86481 2.58324 1.86751 2.54368 1.88819L2.5239 1.91067C2.51311 1.93135 2.50412 1.95922 2.49963 1.98889C2.48794 2.05992 2.49693 2.14534 2.5248 2.19749C2.54009 2.22536 2.56346 2.24155 2.59134 2.24694Z" fill="#78A3AD"/>
<path d="M9.90499 0.249969H1.60423C1.14747 0.249969 0.773438 0.624007 0.773438 1.08076V11.5089H4.36276V9.74477C4.36276 9.49031 4.57046 9.28172 4.82491 9.28172H6.68161C6.93606 9.28172 7.14466 9.49031 7.14466 9.74477V11.5089H10.734V1.08076C10.7358 0.624007 10.3617 0.249969 9.90499 0.249969ZM3.1822 8.23962H2.01244V6.82799H3.1822V8.23962ZM3.1822 6.07992H2.01244V4.66829H3.1822V6.07992ZM3.51848 3.2063C3.44385 3.38253 3.31168 3.53449 3.14264 3.60732C2.94303 3.69363 2.72724 3.70352 2.51505 3.69813C2.39457 3.69543 2.23092 3.70442 2.12753 3.63069C1.92882 3.48773 1.96478 3.28812 1.96209 3.06874C1.95939 2.87273 1.95939 2.67672 1.95309 2.48161C1.9477 2.30088 1.9504 2.12465 1.95399 1.94752C1.95669 1.81715 1.92162 1.64452 2.01154 1.53662C2.16169 1.355 2.44761 1.3505 2.65891 1.36669C3.00328 1.39366 3.42677 1.5636 3.38091 2.02125C3.37282 2.08869 3.35214 2.15972 3.31797 2.21546C3.28201 2.27481 3.20738 2.34584 3.24244 2.42766C3.28291 2.52027 3.40519 2.57062 3.46093 2.66053C3.52837 2.77023 3.55984 2.87722 3.56164 2.97793C3.56343 3.05705 3.54815 3.13527 3.51848 3.2063ZM5.27717 8.23962H4.10741V6.82799H5.27717V8.23962ZM5.27717 6.07992H4.10741V4.66829H5.27717V6.07992ZM5.36978 3.68914C5.26998 3.71431 5.07217 3.69363 5.02632 3.58574C4.96248 3.43468 4.99215 3.25935 4.77726 3.23148C4.67655 3.21799 4.5309 3.26205 4.48864 3.36185C4.44548 3.46615 4.47965 3.59473 4.36815 3.66576C4.29263 3.71431 4.18653 3.7215 4.09931 3.70712C3.9033 3.67565 3.85655 3.53089 3.88532 3.35106C3.89971 3.26385 3.91859 3.17663 3.94107 3.09032C3.98423 2.91499 4.03817 2.74145 4.07773 2.56612C4.11909 2.3827 4.14967 2.19748 4.20002 2.01496C4.28813 1.69037 4.44907 1.26239 4.87706 1.40625C5.06048 1.46739 5.11173 1.67059 5.17107 1.83244C5.25739 2.06621 5.29156 2.32336 5.34551 2.56612C5.38507 2.74145 5.43812 2.91499 5.48217 3.09032C5.50735 3.19462 5.5568 3.35106 5.54242 3.47964C5.53163 3.57854 5.48577 3.65857 5.36978 3.68914ZM7.37214 8.23962H6.20238V6.82799H7.37214V8.23962ZM7.37214 6.07992H6.20238V4.66829H7.37214V6.07992ZM7.67065 3.03727C7.66885 3.1065 7.66526 3.18832 7.65357 3.27014C7.63649 3.39692 7.58793 3.61181 7.43059 3.6271C7.37933 3.63249 7.32359 3.628 7.27863 3.61451C7.02778 3.54078 6.98462 3.27014 6.83536 3.08492C6.7967 3.03727 6.76973 2.98692 6.74005 2.93567C6.70589 2.87722 6.63755 2.76213 6.56023 2.75224C6.46492 2.73966 6.4865 2.87273 6.4874 2.93836C6.4901 3.13617 6.55573 3.55786 6.32735 3.65767C5.98838 3.80602 5.90386 3.34567 5.89847 3.13527C5.89128 2.87273 5.86161 2.61018 5.86161 2.34764C5.86161 2.14263 5.83913 1.70746 6.01895 1.5591C6.31027 1.31903 6.4847 1.57079 6.66992 1.78568C6.75444 1.88459 6.80929 1.98619 6.88032 2.09498C6.92258 2.15972 7.03407 2.22985 7.06824 2.12555C7.12578 1.95472 7.06554 1.74072 7.15545 1.58248C7.26605 1.38917 7.58164 1.44042 7.66436 1.63373C7.67964 1.66879 7.68414 1.72814 7.68864 1.7686C7.73719 2.18669 7.67785 2.61558 7.67065 3.03727ZM9.46801 8.23962H8.29735V6.82799H9.46801V8.23962ZM9.46801 6.07992H8.29735V4.66829H9.46801V6.07992ZM9.65593 3.50392C9.60468 3.61541 9.45812 3.726 9.33314 3.67925C9.19108 3.6262 9.12005 3.48144 9.0661 3.34927C9.01485 3.22159 8.95371 3.08492 8.83682 3.0013C8.77748 2.95814 8.72803 2.98152 8.68757 3.02648C8.52662 3.20181 8.78737 3.56146 8.51943 3.67925C8.45649 3.70622 8.36568 3.70352 8.29824 3.69633C7.97186 3.66216 8.04019 3.33308 8.0384 3.09211C8.0366 2.88531 8.0366 2.68031 8.02941 2.47801C8.02311 2.29279 8.02671 2.11476 8.0312 1.93763C8.0321 1.86211 8.0375 1.79917 8.04649 1.72454C8.05728 1.63013 8.04919 1.52134 8.1418 1.4593C8.22811 1.40175 8.34949 1.41614 8.4439 1.44131C8.56798 1.47458 8.56798 1.52224 8.60934 1.64002C8.63991 1.72904 8.64351 1.83244 8.64531 1.92684C8.64711 1.98259 8.657 2.05992 8.72623 2.06081C8.79726 2.06081 8.8575 1.94033 8.89796 1.89358C8.93663 1.84772 8.98068 1.80636 9.00406 1.75151C9.08588 1.56629 9.35022 1.38917 9.53814 1.5636C9.70088 1.71375 9.57591 1.92325 9.46621 2.06261C9.36641 2.19029 9.19108 2.33145 9.25492 2.51308C9.33224 2.73606 9.49678 2.92937 9.59119 3.14606C9.62086 3.2126 9.66402 3.30431 9.67301 3.38973C9.67481 3.42929 9.67211 3.46885 9.65593 3.50392Z" fill="#78A3AD"/>
</g>
<defs>
<linearGradient id="paint0_linear_253_1782" x1="1095.62" y1="25.8474" x2="1119.8" y2="-783.43" gradientUnits="userSpaceOnUse">
<stop stop-color="#222357"/>
<stop offset="1" stop-color="#254AA5"/>
</linearGradient>
<clipPath id="clip0_253_1782">
<rect width="15.8247" height="12.2281" fill="white" transform="translate(15.8237 0.000183105)"/>
</clipPath>
<clipPath id="clip1_253_1782">
<rect width="23.0177" height="7.91233" fill="white" transform="translate(37.4033 2.15805)"/>
</clipPath>
<clipPath id="clip2_253_1782">
<rect width="15.8247" height="10.0702" fill="white" transform="translate(66.1753 1.43863)"/>
</clipPath>
<clipPath id="clip3_253_1782">
<rect width="11.5088" height="11.5088" fill="white"/>
</clipPath>
</defs>
</svg>
