<svg width="31" height="34" viewBox="0 0 31 34" fill="none" xmlns="http://www.w3.org/2000/svg">
<path d="M15.1397 8.12714H12.1117C11.6828 8.12714 11.3235 7.9723 11.0338 7.6626C10.7441 7.35291 10.5988 6.9701 10.5978 6.51416C10.5968 6.05823 10.7421 5.67542 11.0338 5.36573C11.3255 5.05604 11.6848 4.90119 12.1117 4.90119H15.1397V1.67524C15.1397 1.21823 15.285 0.835415 15.5757 0.526798C15.8664 0.218182 16.2257 0.0633367 16.6536 0.0622614C17.0816 0.0611861 17.4414 0.216032 17.7331 0.526798C18.0248 0.837565 18.1696 1.22038 18.1676 1.67524V4.90119H21.1955C21.6245 4.90119 21.9843 5.05604 22.275 5.36573C22.5657 5.67542 22.7105 6.05823 22.7095 6.51416C22.7085 6.9701 22.5631 7.35345 22.2735 7.66422C21.9838 7.97498 21.6245 8.12929 21.1955 8.12714H18.1676V11.3531C18.1676 11.8101 18.0223 12.1935 17.7316 12.5031C17.4409 12.8128 17.0816 12.9671 16.6536 12.9661C16.2257 12.965 15.8664 12.8101 15.5757 12.5015C15.285 12.1929 15.1397 11.8101 15.1397 11.3531V8.12714ZM9.0838 33.9348C8.25112 33.9348 7.53854 33.6192 6.94608 32.9879C6.35361 32.3567 6.05688 31.597 6.05587 30.7088C6.05486 29.8206 6.35159 29.0614 6.94608 28.4313C7.54056 27.8011 8.25314 27.485 9.0838 27.4829C9.91446 27.4807 10.6275 27.7968 11.223 28.4313C11.8185 29.0657 12.1148 29.8249 12.1117 30.7088C12.1087 31.5927 11.8125 32.3524 11.223 32.9879C10.6336 33.6235 9.92052 33.9391 9.0838 33.9348ZM24.2235 33.9348C23.3908 33.9348 22.6782 33.6192 22.0857 32.9879C21.4933 32.3567 21.1965 31.597 21.1955 30.7088C21.1945 29.8206 21.4913 29.0614 22.0857 28.4313C22.6802 27.8011 23.3928 27.485 24.2235 27.4829C25.0541 27.4807 25.7672 27.7968 26.3627 28.4313C26.9582 29.0657 27.2544 29.8249 27.2514 30.7088C27.2484 31.5927 26.9521 32.3524 26.3627 32.9879C25.7733 33.6235 25.0602 33.9391 24.2235 33.9348ZM3.02794 4.90119H1.51397C1.08501 4.90119 0.725699 4.74634 0.436027 4.43665C0.146355 4.12696 0.00101453 3.74415 5.22057e-06 3.28821C-0.00100409 2.83228 0.144337 2.44947 0.436027 2.13977C0.727718 1.83008 1.08703 1.67524 1.51397 1.67524H4.01201C4.28957 1.67524 4.55452 1.75589 4.80685 1.91718C5.05917 2.07848 5.24842 2.30699 5.37458 2.6027L11.3926 16.192H21.9904L27.4785 5.70768C27.6046 5.43885 27.7813 5.23723 28.0084 5.10281C28.2355 4.9684 28.4878 4.90119 28.7654 4.90119C29.3457 4.90119 29.7812 5.16357 30.0719 5.68832C30.3626 6.21308 30.3686 6.74375 30.0901 7.28033L24.6776 17.7243C24.4001 18.262 24.0282 18.6787 23.5618 18.9744C23.0955 19.2701 22.5843 19.418 22.0282 19.418H10.7492L9.0838 22.6439H25.7374C26.1664 22.6439 26.5262 22.7988 26.8169 23.1085C27.1076 23.4182 27.2524 23.801 27.2514 24.2569C27.2504 24.7128 27.105 25.0962 26.8154 25.407C26.5257 25.7177 26.1664 25.872 25.7374 25.8699H9.0838C7.94832 25.8699 7.08385 25.3457 6.49038 24.2972C5.8969 23.2488 5.87823 22.1869 6.43436 21.1116L8.47821 17.1598L3.02794 4.90119Z" fill="white"/>
</svg>
